<svg xmlns="http://www.w3.org/2000/svg" xmlns:xlink="http://www.w3.org/1999/xlink" width="600" height="600" viewBox="0 0 2400 2400">
<defs>
  <clipPath id="clip640">
    <rect x="0" y="0" width="2400" height="2400"></rect>
  </clipPath>
</defs>
<path clip-path="url(#clip640)" d="
M0 2400 L2400 2400 L2400 0 L0 0  Z
  " fill="#ffffff" fill-rule="evenodd" fill-opacity="1"></path>
<defs>
  <clipPath id="clip641">
    <rect x="480" y="240" width="1681" height="1681"></rect>
  </clipPath>
</defs>
<path clip-path="url(#clip640)" d="
M561.771 2140.07 L2352.76 2140.07 L2352.76 188.741 L561.771 188.741  Z
  " fill="#ffffff" fill-rule="evenodd" fill-opacity="1"></path>
<defs>
  <clipPath id="clip642">
    <rect x="561" y="188" width="1792" height="1952"></rect>
  </clipPath>
</defs>
<polyline clip-path="url(#clip642)" style="stroke:#000000; stroke-linecap:round; stroke-linejoin:round; stroke-width:2; stroke-opacity:0.1; fill:none" points="
  612.459,2140.07 612.459,188.741 
  "></polyline>
<polyline clip-path="url(#clip642)" style="stroke:#000000; stroke-linecap:round; stroke-linejoin:round; stroke-width:2; stroke-opacity:0.1; fill:none" points="
  1177.55,2140.07 1177.55,188.741 
  "></polyline>
<polyline clip-path="url(#clip642)" style="stroke:#000000; stroke-linecap:round; stroke-linejoin:round; stroke-width:2; stroke-opacity:0.1; fill:none" points="
  1742.63,2140.07 1742.63,188.741 
  "></polyline>
<polyline clip-path="url(#clip642)" style="stroke:#000000; stroke-linecap:round; stroke-linejoin:round; stroke-width:2; stroke-opacity:0.1; fill:none" points="
  2307.72,2140.07 2307.72,188.741 
  "></polyline>
<polyline clip-path="url(#clip640)" style="stroke:#000000; stroke-linecap:round; stroke-linejoin:round; stroke-width:4; stroke-opacity:1; fill:none" points="
  561.771,2140.07 2352.76,2140.07 
  "></polyline>
<polyline clip-path="url(#clip640)" style="stroke:#000000; stroke-linecap:round; stroke-linejoin:round; stroke-width:4; stroke-opacity:1; fill:none" points="
  612.459,2140.07 612.459,2121.18 
  "></polyline>
<polyline clip-path="url(#clip640)" style="stroke:#000000; stroke-linecap:round; stroke-linejoin:round; stroke-width:4; stroke-opacity:1; fill:none" points="
  1177.55,2140.07 1177.55,2121.18 
  "></polyline>
<polyline clip-path="url(#clip640)" style="stroke:#000000; stroke-linecap:round; stroke-linejoin:round; stroke-width:4; stroke-opacity:1; fill:none" points="
  1742.63,2140.07 1742.63,2121.18 
  "></polyline>
<polyline clip-path="url(#clip640)" style="stroke:#000000; stroke-linecap:round; stroke-linejoin:round; stroke-width:4; stroke-opacity:1; fill:none" points="
  2307.72,2140.07 2307.72,2121.18 
  "></polyline>
<g clip-path="url(#clip640)">
<text style="fill:#000000; fill-opacity:1; font-family:Arial,Helvetica Neue,Helvetica,sans-serif; font-size:59px; font-weight:bold; text-anchor:middle;" transform="rotate(0, 612.459, 2212.21)" x="612.459" y="2212.21">0</text>
</g>
<g clip-path="url(#clip640)">
<text style="fill:#000000; fill-opacity:1; font-family:Arial,Helvetica Neue,Helvetica,sans-serif; font-size:59px; font-weight:bold; text-anchor:middle;" transform="rotate(0, 1177.55, 2212.21)" x="1177.55" y="2212.21">100</text>
</g>
<g clip-path="url(#clip640)">
<text style="fill:#000000; fill-opacity:1; font-family:Arial,Helvetica Neue,Helvetica,sans-serif; font-size:59px; font-weight:bold; text-anchor:middle;" transform="rotate(0, 1742.63, 2212.21)" x="1742.63" y="2212.21">200</text>
</g>
<g clip-path="url(#clip640)">
<text style="fill:#000000; fill-opacity:1; font-family:Arial,Helvetica Neue,Helvetica,sans-serif; font-size:59px; font-weight:bold; text-anchor:middle;" transform="rotate(0, 2307.72, 2212.21)" x="2307.72" y="2212.21">300</text>
</g>
<g clip-path="url(#clip640)">
<text style="fill:#000000; fill-opacity:1; font-family:Arial,Helvetica Neue,Helvetica,sans-serif; font-size:89px; font-weight:bold; text-anchor:middle;" transform="rotate(0, 1457.26, 2320.26)" x="1457.26" y="2320.26">simulation steps</text>
</g>
<polyline clip-path="url(#clip642)" style="stroke:#000000; stroke-linecap:round; stroke-linejoin:round; stroke-width:2; stroke-opacity:0.1; fill:none" points="
  561.771,1705.11 2352.76,1705.11 
  "></polyline>
<polyline clip-path="url(#clip642)" style="stroke:#000000; stroke-linecap:round; stroke-linejoin:round; stroke-width:2; stroke-opacity:0.1; fill:none" points="
  561.771,1546.59 2352.76,1546.59 
  "></polyline>
<polyline clip-path="url(#clip642)" style="stroke:#000000; stroke-linecap:round; stroke-linejoin:round; stroke-width:2; stroke-opacity:0.1; fill:none" points="
  561.771,1392.87 2352.76,1392.87 
  "></polyline>
<polyline clip-path="url(#clip642)" style="stroke:#000000; stroke-linecap:round; stroke-linejoin:round; stroke-width:2; stroke-opacity:0.1; fill:none" points="
  561.771,937.493 2352.76,937.493 
  "></polyline>
<polyline clip-path="url(#clip642)" style="stroke:#000000; stroke-linecap:round; stroke-linejoin:round; stroke-width:2; stroke-opacity:0.1; fill:none" points="
  561.771,267.844 2352.76,267.844 
  "></polyline>
<polyline clip-path="url(#clip640)" style="stroke:#000000; stroke-linecap:round; stroke-linejoin:round; stroke-width:4; stroke-opacity:1; fill:none" points="
  561.771,2140.07 561.771,188.741 
  "></polyline>
<polyline clip-path="url(#clip640)" style="stroke:#000000; stroke-linecap:round; stroke-linejoin:round; stroke-width:4; stroke-opacity:1; fill:none" points="
  561.771,1705.11 580.669,1705.11 
  "></polyline>
<polyline clip-path="url(#clip640)" style="stroke:#000000; stroke-linecap:round; stroke-linejoin:round; stroke-width:4; stroke-opacity:1; fill:none" points="
  561.771,1546.59 580.669,1546.59 
  "></polyline>
<polyline clip-path="url(#clip640)" style="stroke:#000000; stroke-linecap:round; stroke-linejoin:round; stroke-width:4; stroke-opacity:1; fill:none" points="
  561.771,1392.87 580.669,1392.87 
  "></polyline>
<polyline clip-path="url(#clip640)" style="stroke:#000000; stroke-linecap:round; stroke-linejoin:round; stroke-width:4; stroke-opacity:1; fill:none" points="
  561.771,937.493 580.669,937.493 
  "></polyline>
<polyline clip-path="url(#clip640)" style="stroke:#000000; stroke-linecap:round; stroke-linejoin:round; stroke-width:4; stroke-opacity:1; fill:none" points="
  561.771,267.844 580.669,267.844 
  "></polyline>
<g clip-path="url(#clip640)">
<text style="fill:#000000; fill-opacity:1; font-family:Arial,Helvetica Neue,Helvetica,sans-serif; font-size:59px; font-weight:bold; text-anchor:middle;" transform="rotate(0, 315.156, 1726.61)" x="315.156" y="1726.61">Usain Bolt (10)</text>
</g>
<g clip-path="url(#clip640)">
<text style="fill:#000000; fill-opacity:1; font-family:Arial,Helvetica Neue,Helvetica,sans-serif; font-size:59px; font-weight:bold; text-anchor:middle;" transform="rotate(0, 356.942, 1568.09)" x="356.942" y="1568.09">sound (350)</text>
</g>
<g clip-path="url(#clip640)">
<text style="fill:#000000; fill-opacity:1; font-family:Arial,Helvetica Neue,Helvetica,sans-serif; font-size:59px; font-weight:bold; text-anchor:middle;" transform="rotate(0, 329.325, 1414.37)" x="329.325" y="1414.37">lunar (11×10³)</text>
</g>
<g clip-path="url(#clip640)">
<text style="fill:#000000; fill-opacity:1; font-family:Arial,Helvetica Neue,Helvetica,sans-serif; font-size:59px; font-weight:bold; text-anchor:middle;" transform="rotate(0, 347.736, 958.993)" x="347.736" y="958.993">light (3×10⁸)</text>
</g>
<g clip-path="url(#clip640)">
<text style="fill:#000000; fill-opacity:1; font-family:Arial,Helvetica Neue,Helvetica,sans-serif; font-size:59px; font-weight:bold; text-anchor:middle;" transform="rotate(0, 288.382, 289.344)" x="288.382" y="289.344">honestly no idea</text>
</g>
<g clip-path="url(#clip640)">
<text style="fill:#000000; fill-opacity:1; font-family:Arial,Helvetica Neue,Helvetica,sans-serif; font-size:118px; font-weight:bold; text-anchor:middle;" transform="rotate(0, 1457.26, 103.2)" x="1457.26" y="103.2">agent speed evolution</text>
</g>
<polyline clip-path="url(#clip642)" style="stroke:#009af9; stroke-linecap:round; stroke-linejoin:round; stroke-width:20; stroke-opacity:1; fill:none" points="
  612.459,2084.85 618.11,2080.31 623.761,2077.06 629.412,2073.36 635.063,2069.58 640.714,2064.91 646.364,2059.18 652.015,2051.22 657.666,2043.94 663.317,2037.49 
  668.968,2029.87 674.619,2023.25 680.27,2016.31 685.92,2009.16 691.571,1999.52 697.222,1990.31 702.873,1981.57 708.524,1971.44 714.175,1956.86 719.826,1947.91 
  725.476,1941.79 731.127,1934.21 736.778,1927.33 742.429,1918.73 748.08,1910.66 753.731,1900.16 759.382,1891.36 765.033,1878.69 770.683,1865.76 776.334,1854.01 
  781.985,1846.39 787.636,1833.64 793.287,1823.37 798.938,1812.81 804.589,1800.44 810.239,1790.67 815.89,1783.76 821.541,1774.58 827.192,1765.64 832.843,1756.65 
  838.494,1747.06 844.145,1737.48 849.796,1730.14 855.446,1721.03 861.097,1712.74 866.748,1705.51 872.399,1698.16 878.05,1689.34 883.701,1679.05 889.352,1668.34 
  895.002,1661.23 900.653,1652.33 906.304,1643.73 911.955,1632.38 917.606,1624.37 923.257,1615.45 928.908,1604.29 934.558,1593.33 940.209,1584.17 945.86,1570.06 
  951.511,1561.57 957.162,1553.76 962.813,1544.87 968.464,1535.61 974.115,1525.43 979.765,1519.32 985.416,1509.69 991.067,1501.37 996.718,1489.27 1002.37,1481.77 
  1008.02,1469.51 1013.67,1463.24 1019.32,1454.13 1024.97,1444.44 1030.62,1435.08 1036.27,1424.26 1041.92,1416.09 1047.58,1408.93 1053.23,1398.8 1058.88,1387.76 
  1064.53,1376.13 1070.18,1363.34 1075.83,1352.41 1081.48,1344.41 1087.13,1333.13 1092.78,1321.82 1098.43,1312.83 1104.08,1304.2 1109.74,1292.55 1115.39,1284.23 
  1121.04,1274.32 1126.69,1266.81 1132.34,1256.18 1137.99,1245.66 1143.64,1236.2 1149.29,1226.17 1154.94,1212.86 1160.59,1201.89 1166.24,1190.78 1171.89,1182.56 
  1177.55,1174.07 1183.2,1165.21 1188.85,1155.99 1194.5,1145.59 1200.15,1138.76 1205.8,1132.66 1211.45,1123.01 1217.1,1112.2 1222.75,1099.42 1228.4,1088.87 
  1234.05,1081.16 1239.71,1072.37 1245.36,1062.22 1251.01,1051.51 1256.66,1040.01 1262.31,1032.98 1267.96,1023.72 1273.61,1016.78 1279.26,1009.65 1284.91,997.443 
  1290.56,991.229 1296.21,977.813 1301.86,964.932 1307.52,953.108 1313.17,939.952 1318.82,922.717 1324.47,912.482 1330.12,904.885 1335.77,896.741 1341.42,888.31 
  1347.07,879.038 1352.72,866.468 1358.37,854.28 1364.02,845.942 1369.68,839.069 1375.33,830.394 1380.98,821.317 1386.63,812.528 1392.28,804.409 1397.93,792.93 
  1403.58,783.758 1409.23,774.287 1414.88,768.386 1420.53,756.726 1426.18,745.532 1431.83,738.234 1437.49,727.932 1443.14,717.925 1448.79,705.052 1454.44,695.658 
  1460.09,683.934 1465.74,678.662 1471.39,671.398 1477.04,660.985 1482.69,651.365 1488.34,638.395 1493.99,628.366 1499.64,616.679 1505.3,605.805 1510.95,595.867 
  1516.6,586.606 1522.25,575.211 1527.9,565.827 1533.55,557.027 1539.2,547.017 1544.85,537.044 1550.5,528.686 1556.15,519.028 1561.8,509.851 1567.46,500.187 
  1573.11,489.617 1578.76,479.599 1584.41,470.124 1590.06,462.578 1595.71,453.482 1601.36,444.707 1607.01,435.549 1612.66,427.744 1618.31,420.181 1623.96,409.667 
  1629.61,400.257 1635.27,392.535 1640.92,384.372 1646.57,374.587 1652.22,367.026 1657.87,359.785 1663.52,354.373 1669.17,347.697 1674.82,339.62 1680.47,331.801 
  1686.12,328.161 1691.77,323.48 1697.43,318.716 1703.08,314.516 1708.73,310.365 1714.38,305.97 1720.03,303.468 1725.68,299.954 1731.33,297.36 1736.98,294.009 
  1742.63,292.034 1748.28,287.728 1753.93,286.281 1759.58,283.971 1765.24,282.489 1770.89,280.637 1776.54,278.929 1782.19,277.394 1787.84,275.685 1793.49,272.749 
  1799.14,270.891 1804.79,270.142 1810.44,269.021 1816.09,267.417 1821.74,266.441 1827.4,264.827 1833.05,263.528 1838.7,263.097 1844.35,262.366 1850,261.945 
  1855.65,261.073 1861.3,260.809 1866.95,258.863 1872.6,258.496 1878.25,257.857 1883.9,257.59 1889.55,257.347 1895.21,257.059 1900.86,255.619 1906.51,255.409 
  1912.16,255.339 1917.81,255.015 1923.46,254.553 1929.11,254.219 1934.76,253.729 1940.41,252.434 1946.06,252.732 1951.71,252.639 1957.36,252.271 1963.02,252.072 
  1968.67,251.869 1974.32,251.952 1979.97,250.247 1985.62,249.992 1991.27,249.973 1996.92,247.847 2002.57,247.782 2008.22,247.6 2013.87,247.61 2019.52,247.597 
  2025.18,247.326 2030.83,247.715 2036.48,247.506 2042.13,247.335 2047.78,247.232 2053.43,247.218 2059.08,247.128 2064.73,246.97 2070.38,246.853 2076.03,246.735 
  2081.68,246.554 2087.33,246.668 2092.99,246.656 2098.64,246.503 2104.29,246.457 2109.94,246.44 2115.59,246.389 2121.24,246.253 2126.89,246.144 2132.54,246.034 
  2138.19,245.95 2143.84,245.905 2149.49,245.844 2155.15,245.678 2160.8,245.603 2166.45,245.462 2172.1,245.451 2177.75,245.46 2183.4,245.421 2189.05,245.215 
  2194.7,245.074 2200.35,244.852 2206,244.783 2211.65,244.642 2217.3,244.5 2222.96,244.337 2228.61,244.198 2234.26,244.125 2239.91,243.968 2245.56,246.189 
  2251.21,246.114 2256.86,246.049 2262.51,245.946 2268.16,245.86 2273.81,245.837 2279.46,245.711 2285.12,245.615 2290.77,245.559 2296.42,245.372 2302.07,245.201 
  
  "></polyline>
</svg>